<svg height="384pt" viewBox="0 0 384 384" width="384pt" xmlns="http://www.w3.org/2000/svg"><path d="m192 0c-105.863281 0-192 86.128906-192 192 0 105.863281 86.136719 192 192 192s192-86.136719 192-192c0-105.871094-86.136719-192-192-192zm0 352c-88.222656 0-160-71.777344-160-160s71.777344-160 160-160 160 71.777344 160 160-71.777344 160-160 160zm0 0"/><path d="m276.847656 141.089844-28.28125 28.285156-33.941406-33.941406 28.277344-28.28125-22.621094-22.632813-28.28125 28.28125-28.28125-28.28125-22.621094 22.632813 28.277344 28.28125-33.941406 33.941406-28.28125-28.285156-22.625 22.628906 28.28125 28.28125-28.28125 28.28125 22.625 22.621094 28.28125-28.277344 33.941406 33.941406-28.277344 28.28125 22.621094 22.625 28.28125-28.28125 28.28125 28.28125 22.621094-22.625-28.277344-28.28125 33.941406-33.941406 28.28125 28.277344 22.625-22.621094-28.28125-28.28125 28.28125-28.28125zm-84.847656 84.855468-33.945312-33.945312 33.945312-33.945312 33.945312 33.945312zm0 0"/></svg>